<?xml version="1.0" standalone="no"?>
<!DOCTYPE svg PUBLIC "-//W3C//DTD SVG 20010904//EN"
 "http://www.w3.org/TR/2001/REC-SVG-20010904/DTD/svg10.dtd">
<svg version="1.0" xmlns="http://www.w3.org/2000/svg"
 width="616.000000pt" height="404.000000pt" viewBox="0 0 616.000000 404.000000"
 preserveAspectRatio="xMidYMid meet">

<g transform="translate(0.000000,404.000000) scale(0.100000,-0.100000)"
fill="#000000" stroke="none">
<path d="M13 4033 c-10 -4 -13 -275 -13 -1309 l0 -1303 30 -16 c34 -18 62 -19
77 -4 7 7 22 7 52 -2 32 -9 46 -10 64 0 22 12 271 10 283 -2 4 -3 15 0 26 6
16 10 21 9 29 -5 12 -22 42 -23 59 -3 7 8 20 15 30 15 10 0 23 -7 30 -15 17
-20 37 -19 57 4 20 24 80 18 103 -11 15 -18 50 -17 50 3 0 17 38 29 64 20 17
-7 26 -7 29 2 3 9 11 9 33 -2 64 -31 73 -33 83 -26 6 3 8 11 5 17 -4 6 0 14 7
19 21 13 29 11 29 -7 0 -13 3 -14 14 -5 10 8 16 8 25 -3 6 -8 21 -12 31 -9 13
4 26 -3 38 -17 l19 -23 21 21 c26 26 38 28 46 7 6 -17 32 -20 41 -4 4 6 -2 13
-14 16 -29 7 -26 21 6 29 17 5 28 3 31 -4 2 -7 11 -12 19 -12 9 0 26 -11 39
-25 13 -14 27 -25 31 -25 19 1 36 20 38 42 1 13 9 24 20 27 13 2 16 -1 12 -13
-8 -21 14 -33 25 -12 13 23 30 20 26 -6 -3 -25 2 -25 105 -14 26 3 40 -1 46
-11 11 -21 44 -12 56 15 11 25 52 31 61 9 4 -10 28 -14 89 -14 48 0 90 -5 98
-11 10 -9 18 -8 33 3 26 20 61 19 73 -2 9 -17 12 -17 43 -1 18 9 55 19 81 22
27 3 63 13 80 21 24 11 53 13 112 10 116 -8 138 -10 158 -19 11 -6 28 -3 44 5
21 11 27 11 30 2 6 -18 30 -16 41 4 9 15 11 15 26 0 16 -15 38 -14 61 4 6 4
24 0 40 -11 26 -17 31 -17 58 -4 16 9 36 12 45 9 10 -4 46 -11 81 -15 l64 -8
33 35 34 36 83 -6 84 -6 -1 77 c0 51 -5 80 -13 87 -14 11 -42 398 -31 427 14
35 248 49 909 54 218 2 411 -1 428 -6 20 -5 31 -5 31 1 0 6 4 8 10 4 5 -3 62
-8 127 -10 190 -7 246 -15 266 -36 14 -15 22 -17 38 -9 11 6 28 9 38 5 15 -4
18 -16 17 -80 -1 -43 4 -79 10 -85 9 -9 32 -5 94 14 71 23 89 25 140 17 143
-23 234 -124 235 -261 0 -77 -16 -120 -52 -140 -19 -11 -26 -23 -27 -47 -1
-17 1 -30 3 -27 2 2 10 -1 17 -7 14 -11 124 -18 124 -8 0 3 26 6 58 6 185 3
225 2 235 -4 6 -3 7 -1 3 5 -6 10 34 18 67 13 4 0 7 4 7 11 0 6 6 3 14 -7 8
-11 19 -16 30 -12 15 6 16 109 16 1307 l0 1300 -3067 -1 c-1688 0 -3074 -3
-3080 -6z m3157 -2583 c0 -5 -2 -10 -4 -10 -3 0 -8 5 -11 10 -3 6 -1 10 4 10
6 0 11 -4 11 -10z m-580 -14 c0 -3 -4 -8 -10 -11 -5 -3 -10 -1 -10 4 0 6 5 11
10 11 6 0 10 -2 10 -4z m80 -16 c0 -5 -4 -10 -10 -10 -5 0 -10 5 -10 10 0 6 5
10 10 10 6 0 10 -4 10 -10z m467 4 c-3 -3 -12 -4 -19 -1 -8 3 -5 6 6 6 11 1
17 -2 13 -5z m-2257 -12 c0 -13 -12 -22 -22 -16 -10 6 -1 24 13 24 5 0 9 -4 9
-8z m405 -3 c10 -15 -1 -23 -20 -15 -9 3 -13 10 -10 16 8 13 22 13 30 -1z
m380 1 c-3 -5 -10 -10 -16 -10 -5 0 -9 5 -9 10 0 6 7 10 16 10 8 0 12 -4 9
-10z m-155 -16 c0 -9 -5 -14 -12 -12 -18 6 -21 28 -4 28 9 0 16 -7 16 -16z
m290 -4 c0 -5 -7 -10 -15 -10 -8 0 -15 5 -15 10 0 6 7 10 15 10 8 0 15 -4 15
-10z"/>
<path d="M5315 1788 c-28 -16 -48 -39 -65 -73 -14 -27 -46 -79 -72 -115 -27
-35 -48 -70 -48 -78 0 -13 -21 -67 -41 -105 -16 -30 0 -67 30 -69 42 -2 80 3
114 15 41 16 54 19 87 24 19 3 44 10 55 16 11 6 23 10 28 9 4 -1 7 3 7 8 0 6
6 10 13 10 7 0 18 9 25 20 7 11 18 20 25 20 19 0 56 46 87 107 15 29 30 50 33
46 4 -3 7 1 7 10 0 10 5 17 10 17 6 0 10 8 9 18 0 10 -3 12 -6 5 -3 -8 -20 7
-42 36 -57 77 -85 95 -155 99 -49 2 -69 -2 -101 -20z"/>
</g>
</svg>
